<svg version="1.1" id="Layer_1" xmlns="http://www.w3.org/2000/svg" xmlns:xlink="http://www.w3.org/1999/xlink" x="0px" y="0px"
	 width="100%" viewBox="0 0 288 288" enable-background="new 0 0 288 288" xml:space="preserve">
<path fill="#FF4800" opacity="1.000000" stroke="none" 
	d="
M189.000000,289.000000 
	C126.027130,289.000000 63.554264,289.000000 1.040697,289.000000 
	C1.040697,193.068817 1.040697,97.137619 1.040697,1.103207 
	C96.889427,1.103207 192.779007,1.103207 288.834290,1.103207 
	C288.834290,96.999763 288.834290,192.999863 288.834290,289.000000 
	C255.804443,289.000000 222.652222,289.000000 189.000000,289.000000 
M190.226425,51.917961 
	C180.391891,51.826462 173.839935,55.853733 170.891937,63.802238 
	C167.916748,71.824020 170.463959,79.405472 178.156174,85.819450 
	C179.068130,86.579880 180.145569,87.817657 180.170486,88.857544 
	C180.345001,96.139030 180.262878,103.426659 180.262878,109.405136 
	C171.280624,113.401024 163.297134,116.952606 154.735245,120.761490 
	C134.346161,104.982903 113.256035,88.717117 92.299759,72.280678 
	C91.252754,71.459496 90.943306,69.140053 91.009956,67.548363 
	C91.410126,57.991257 86.121307,49.585926 77.426414,46.343391 
	C68.989822,43.197186 59.321106,46.107189 53.773571,53.462219 
	C48.450481,60.519665 48.391300,70.407944 53.628475,77.706291 
	C59.052086,85.264450 68.218605,87.870262 77.676590,84.943161 
	C79.334175,84.430168 81.899689,84.842842 83.303085,85.856461 
	C90.184265,90.826500 96.821609,96.134834 103.531616,101.341042 
	C117.200974,111.946899 130.861664,122.563934 144.706985,133.316986 
	C139.099335,142.535324 135.935822,152.221191 136.128387,162.811508 
	C136.320435,173.373703 139.598618,183.022476 145.692352,192.301544 
	C140.295929,197.551819 134.982452,202.566345 129.864517,207.773102 
	C127.659523,210.016357 125.655678,211.214737 122.144806,210.963837 
	C118.881378,210.730606 115.123199,211.754044 112.213295,213.363831 
	C105.123093,217.286240 102.455391,226.122818 105.388390,233.798645 
	C108.248100,241.282639 116.272041,245.674271 124.368935,244.187012 
	C132.423645,242.707520 138.051788,235.792160 138.140869,227.550247 
	C138.164368,225.375336 138.057327,222.550613 139.289566,221.149246 
	C144.663559,215.037811 150.508926,209.340881 156.087646,203.591858 
	C190.260681,226.886292 225.973068,207.599609 236.536530,182.435547 
	C247.251541,156.910431 236.334305,119.211639 196.332474,110.199677 
	C196.332474,103.182335 196.221191,96.046486 196.445251,88.921181 
	C196.481339,87.773193 197.817993,86.425232 198.883057,85.590057 
	C205.210739,80.628258 208.255325,74.347336 206.450684,66.335075 
	C204.614029,58.180622 199.320877,53.434574 190.226425,51.917961 
z"/>
<path fill="#F8F3EB" opacity="1.000000" stroke="none" 
	d="
M190.658066,51.946415 
	C199.320877,53.434574 204.614029,58.180622 206.450684,66.335075 
	C208.255325,74.347336 205.210739,80.628258 198.883057,85.590057 
	C197.817993,86.425232 196.481339,87.773193 196.445251,88.921181 
	C196.221191,96.046486 196.332474,103.182335 196.332474,110.199677 
	C236.334305,119.211639 247.251541,156.910431 236.536530,182.435547 
	C225.973068,207.599609 190.260681,226.886292 156.087646,203.591858 
	C150.508926,209.340881 144.663559,215.037811 139.289566,221.149246 
	C138.057327,222.550613 138.164368,225.375336 138.140869,227.550247 
	C138.051788,235.792160 132.423645,242.707520 124.368935,244.187012 
	C116.272041,245.674271 108.248100,241.282639 105.388390,233.798645 
	C102.455391,226.122818 105.123093,217.286240 112.213295,213.363831 
	C115.123199,211.754044 118.881378,210.730606 122.144806,210.963837 
	C125.655678,211.214737 127.659523,210.016357 129.864517,207.773102 
	C134.982452,202.566345 140.295929,197.551819 145.692352,192.301544 
	C139.598618,183.022476 136.320435,173.373703 136.128387,162.811508 
	C135.935822,152.221191 139.099335,142.535324 144.706985,133.316986 
	C130.861664,122.563934 117.200974,111.946899 103.531616,101.341042 
	C96.821609,96.134834 90.184265,90.826500 83.303085,85.856461 
	C81.899689,84.842842 79.334175,84.430168 77.676590,84.943161 
	C68.218605,87.870262 59.052086,85.264450 53.628475,77.706291 
	C48.391300,70.407944 48.450481,60.519665 53.773571,53.462219 
	C59.321106,46.107189 68.989822,43.197186 77.426414,46.343391 
	C86.121307,49.585926 91.410126,57.991257 91.009956,67.548363 
	C90.943306,69.140053 91.252754,71.459496 92.299759,72.280678 
	C113.256035,88.717117 134.346161,104.982903 154.735245,120.761490 
	C163.297134,116.952606 171.280624,113.401024 180.262878,109.405136 
	C180.262878,103.426659 180.345001,96.139030 180.170486,88.857544 
	C180.145569,87.817657 179.068130,86.579880 178.156174,85.819450 
	C170.463959,79.405472 167.916748,71.824020 170.891937,63.802238 
	C173.839935,55.853733 180.391891,51.826462 190.658066,51.946415 
M197.423386,187.162369 
	C209.543869,182.187393 216.085846,171.833130 214.962616,159.402267 
	C213.934326,148.022095 204.942764,138.114197 193.668427,135.937988 
	C181.720505,133.631790 169.690308,139.254517 164.455566,150.142303 
	C159.641129,160.155869 160.541061,170.067856 167.525528,178.738266 
	C175.083313,188.120392 185.134903,190.658112 197.423386,187.162369 
z"/>
<path fill="#FF4A02" opacity="1.000000" stroke="none" 
	d="
M197.052567,187.308685 
	C185.134903,190.658112 175.083313,188.120392 167.525528,178.738266 
	C160.541061,170.067856 159.641129,160.155869 164.455566,150.142303 
	C169.690308,139.254517 181.720505,133.631790 193.668427,135.937988 
	C204.942764,138.114197 213.934326,148.022095 214.962616,159.402267 
	C216.085846,171.833130 209.543869,182.187393 197.052567,187.308685 
z"/>
</svg>